# Sting, blade half. Generated from Sting-Sword-lowpoly.obj; see docs for provenance.
v 1.079480 0.252024 1.812692
v 1.812692 0.000000 1.812692
v 1.963835 0.000000 -1.913454
v 1.169487 0.230139 -1.913454
v -1.049478 0.259540 5.213409
v -1.762311 0.000000 5.213409
v -1.762311 0.000000 8.563745
v -1.049478 0.259540 8.563745
v -1.499515 0.158397 11.322104
v -2.518026 0.000000 11.322104
v -3.676789 0.000000 12.241557
v -2.189572 0.051569 12.241557
v 1.319500 0.195873 -6.447743
v 2.215740 0.000000 -6.447743
v 2.266121 0.000000 -10.982032
v 1.349502 0.189351 -10.982032
v 0.695448 0.229151 -25.451450
v 1.167816 0.000000 -25.451450
v 0.452405 0.000000 -29.068806
v 0.251292 0.131352 -29.126291
v 0.087766 0.105893 -29.487164
v 0.243025 0.000000 -29.555824
v 2.256045 0.000000 -14.599386
v 1.343502 0.184912 -14.599386
v 2.044445 0.000000 -18.216742
v 1.217492 0.202942 -18.216742
v 1.631321 0.000000 -21.834097
v 0.971471 0.225984 -21.834097
v -1.079480 0.252024 1.812692
v -1.812692 0.000000 1.812692
v -1.812692 0.000000 9.483198
v -1.079480 0.252024 9.483198
v -1.963835 0.000000 10.402651
v -1.169487 0.230139 10.402651
v 0.394079 0.390062 10.402650
v 0.000000 0.591931 10.402651
v 0.000000 0.591931 11.322104
v 0.505287 0.340684 11.322103
v 0.363749 0.404109 9.483197
v 0.000000 0.591931 9.483198
v 0.353640 0.408846 8.563745
v 0.000000 0.591931 8.563745
v 0.363749 0.404109 1.812692
v 0.000000 0.591931 1.812692
v 0.000000 0.591931 5.213409
v 0.353640 0.408846 5.213408
v -0.394079 0.390062 -1.913454
v 0.000000 0.591931 -1.913454
v 0.000000 0.591931 -6.447743
v -0.444628 0.367203 -6.447743
v -0.327354 0.307539 -21.834097
v 0.000000 0.394349 -21.834097
v 0.000000 0.295557 -25.451450
v -0.234343 0.264168 -25.451450
v -0.410255 0.334506 -18.216742
v 0.000000 0.493140 -18.216742
v -0.452716 0.341612 -14.599386
v 0.000000 0.542536 -14.599386
v -0.454738 0.362714 -10.982032
v 0.000000 0.591931 -10.982032
v 0.000000 0.161176 -29.068806
v -0.090783 0.158021 -29.092228
v 0.000000 0.591931 12.241557
v 0.737814 0.248232 12.241557
v -0.363749 0.404109 1.812692
v 1.762311 0.000000 5.213409
v 1.049478 0.259540 5.213409
v 1.049478 0.259540 8.563745
v 1.762311 0.000000 8.563745
v 2.518026 0.000000 11.322104
v 1.499515 0.158397 11.322104
v 2.189572 0.051569 12.241557
v 3.676789 0.000000 12.241557
v 1.079480 0.252024 9.483198
v 1.812692 0.000000 9.483198
v 1.169487 0.230139 10.402651
v 1.963835 0.000000 10.402651
v 0.394079 0.390062 -1.913454
v 0.444628 0.367203 -6.447743
v 0.327354 0.307539 -21.834097
v 0.234343 0.264168 -25.451450
v 0.410255 0.334506 -18.216742
v 0.452716 0.341612 -14.599386
v 0.454738 0.362714 -10.982032
v 0.090783 0.158021 -29.092228
v 0.000000 0.145376 -29.231144
v -0.243025 0.000000 -29.555824
v -0.087766 0.105893 -29.487164
v 0.000000 0.067659 -29.833128
v -0.124400 0.000000 -30.042839
v -0.452405 0.000000 -29.068806
v -0.251292 0.131352 -29.126291
v -1.169487 0.230139 -1.913454
v -1.963835 0.000000 -1.913454
v -2.215740 0.000000 -6.447743
v -1.319500 0.195873 -6.447743
v -1.349502 0.189351 -10.982032
v -2.266121 0.000000 -10.982032
v -1.167816 0.000000 -25.451450
v -0.695448 0.229151 -25.451450
v -1.343502 0.184912 -14.599386
v -2.256045 0.000000 -14.599386
v -1.217492 0.202942 -18.216742
v -2.044445 0.000000 -18.216742
v -0.971471 0.225984 -21.834097
v -1.631321 0.000000 -21.834097
v -0.394079 0.390062 10.402650
v -0.505287 0.340684 11.322103
v -0.363749 0.404109 9.483197
v -0.353640 0.408846 8.563745
v -0.353640 0.408846 5.213408
v 0.124400 0.000000 -30.042839
v 0.000000 0.000000 -30.340366
v -0.737814 0.248232 12.241557
v 1.079480 -0.252024 1.812692
v 1.169487 -0.230139 -1.913454
v -1.049478 -0.259540 5.213409
v -1.049478 -0.259540 8.563745
v -1.499515 -0.158397 11.322104
v -2.189572 -0.051569 12.241557
v 1.319500 -0.195873 -6.447743
v 1.349502 -0.189351 -10.982032
v 0.695448 -0.229151 -25.451450
v 0.251292 -0.131352 -29.126291
v 0.087766 -0.105893 -29.487164
v 1.343502 -0.184912 -14.599386
v 1.217492 -0.202942 -18.216742
v 0.971471 -0.225984 -21.834097
v -1.079480 -0.252024 1.812692
v -1.079480 -0.252024 9.483198
v -1.169487 -0.230139 10.402651
v 0.394079 -0.390062 10.402650
v 0.505287 -0.340684 11.322103
v 0.000000 -0.591931 11.322104
v 0.000000 -0.591931 10.402651
v 0.363749 -0.404109 9.483197
v 0.000000 -0.591931 9.483198
v 0.353640 -0.408846 8.563745
v 0.000000 -0.591931 8.563745
v 0.363749 -0.404109 1.812692
v 0.353640 -0.408846 5.213408
v 0.000000 -0.591931 5.213409
v 0.000000 -0.591931 1.812692
v -0.394079 -0.390062 -1.913454
v -0.444628 -0.367203 -6.447743
v 0.000000 -0.591931 -6.447743
v 0.000000 -0.591931 -1.913454
v -0.327354 -0.307539 -21.834097
v -0.234343 -0.264168 -25.451450
v 0.000000 -0.295557 -25.451450
v 0.000000 -0.394349 -21.834097
v -0.410255 -0.334506 -18.216742
v 0.000000 -0.493140 -18.216742
v -0.452716 -0.341612 -14.599386
v 0.000000 -0.542536 -14.599386
v -0.454738 -0.362714 -10.982032
v 0.000000 -0.591931 -10.982032
v -0.090783 -0.158021 -29.092228
v 0.000000 -0.161176 -29.068806
v 0.737814 -0.248232 12.241557
v 0.000000 -0.591931 12.241557
v -0.363749 -0.404109 1.812692
v 1.049478 -0.259540 8.563745
v 1.049478 -0.259540 5.213409
v 2.189572 -0.051569 12.241557
v 1.499515 -0.158397 11.322104
v 1.079480 -0.252024 9.483198
v 1.169487 -0.230139 10.402651
v 0.444628 -0.367203 -6.447743
v 0.394079 -0.390062 -1.913454
v 0.234343 -0.264168 -25.451450
v 0.327354 -0.307539 -21.834097
v 0.410255 -0.334506 -18.216742
v 0.452716 -0.341612 -14.599386
v 0.454738 -0.362714 -10.982032
v 0.000000 -0.145376 -29.231144
v 0.090783 -0.158021 -29.092228
v 0.000000 -0.067659 -29.833128
v -0.087766 -0.105893 -29.487164
v -0.251292 -0.131352 -29.126291
v -1.169487 -0.230139 -1.913454
v -1.349502 -0.189351 -10.982032
v -1.319500 -0.195873 -6.447743
v -0.695448 -0.229151 -25.451450
v -1.343502 -0.184912 -14.599386
v -1.217492 -0.202942 -18.216742
v -0.971471 -0.225984 -21.834097
v -0.505287 -0.340684 11.322103
v -0.394079 -0.390062 10.402650
v -0.363749 -0.404109 9.483197
v -0.353640 -0.408846 8.563745
v -0.353640 -0.408846 5.213408
v -0.737814 -0.248232 12.241557
vn 0.2623 0.9650 0.0019
vn 0.9999 0.0000 0.0156
vn 0.9996 0.0000 0.0259
vn 0.2371 0.9715 0.0027
vn -0.2740 0.9617 0.0006
vn -1.0000 0.0000 0.0043
vn -0.9998 0.0000 -0.0161
vn -0.2735 0.9619 -0.0021
vn -0.1674 0.9858 -0.0085
vn -0.9564 0.0000 -0.2920
vn -0.9546 0.0000 -0.2979
vn -0.1040 0.9945 -0.0095
vn 0.2103 0.9776 0.0016
vn 0.9998 0.0000 0.0181
vn 1.0000 0.0000 0.0002
vn 0.1953 0.9807 -0.0010
vn 0.2701 0.9618 -0.0440
vn 0.9898 0.0000 -0.1421
vn 0.9596 0.0000 -0.2814
vn 0.3326 0.9316 -0.1465
vn 0.2458 0.9543 -0.1700
vn 0.9214 0.0000 -0.3885
vn 0.9998 0.0000 -0.0207
vn 0.1921 0.9814 -0.0037
vn 0.9982 0.0000 -0.0591
vn 0.2033 0.9791 -0.0100
vn 0.9958 0.0000 -0.0910
vn 0.2281 0.9734 -0.0197
vn -0.2623 0.9650 0.0019
vn -0.9999 0.0000 0.0156
vn -0.9980 0.0000 -0.0630
vn -0.2616 0.9651 -0.0073
vn -0.9810 0.0000 -0.1937
vn -0.2270 0.9738 -0.0124
vn 0.3325 0.9431 0.0048
vn 0.0000 1.0000 -0.0022
vn 0.0000 1.0000 -0.0069
vn 0.3155 0.9489 0.0081
vn 0.3365 0.9416 0.0016
vn 0.0000 1.0000 -0.0005
vn 0.3379 0.9412 0.0004
vn 0.0000 1.0000 -0.0001
vn 0.3358 0.9419 -0.0004
vn 0.0000 1.0000 0.0001
vn 0.0000 1.0000 0.0000
vn 0.3375 0.9413 -0.0001
vn -0.3312 0.9435 -0.0007
vn 0.0000 1.0000 0.0002
vn -0.3256 0.9455 -0.0005
vn -0.1937 0.9809 -0.0150
vn 0.0000 0.9998 -0.0218
vn 0.0000 0.9996 -0.0288
vn -0.1281 0.9914 -0.0259
vn -0.2544 0.9670 -0.0098
vn 0.0000 0.9998 -0.0157
vn -0.2923 0.9563 -0.0061
vn 0.0000 0.9999 -0.0100
vn -0.3157 0.9488 -0.0032
vn 0.0000 1.0000 -0.0049
vn 0.0000 0.9981 -0.0611
vn -0.0829 0.9936 -0.0770
vn 0.0000 0.9999 -0.0102
vn 0.2720 0.9622 0.0139
vn -0.3358 0.9419 -0.0004
vn 1.0000 0.0000 0.0043
vn 0.2740 0.9617 0.0006
vn 0.2735 0.9619 -0.0021
vn 0.9998 0.0000 -0.0161
vn 0.9564 0.0000 -0.2920
vn 0.1674 0.9858 -0.0085
vn 0.1040 0.9945 -0.0095
vn 0.9546 0.0000 -0.2979
vn 0.2616 0.9651 -0.0073
vn 0.9980 0.0000 -0.0630
vn 0.2270 0.9738 -0.0124
vn 0.9810 0.0000 -0.1937
vn 0.3312 0.9435 -0.0007
vn 0.3256 0.9455 -0.0005
vn 0.1937 0.9809 -0.0150
vn 0.1281 0.9914 -0.0259
vn 0.2544 0.9670 -0.0098
vn 0.2923 0.9563 -0.0061
vn 0.3157 0.9488 -0.0032
vn 0.0829 0.9936 -0.0770
vn 0.0000 0.9922 -0.1249
vn -0.9214 0.0000 -0.3885
vn -0.2458 0.9543 -0.1700
vn 0.0000 0.9885 -0.1510
vn -0.6382 0.0000 -0.7699
vn -0.9596 0.0000 -0.2814
vn -0.3326 0.9316 -0.1465
vn -0.2371 0.9715 0.0027
vn -0.9996 0.0000 0.0259
vn -0.9998 0.0000 0.0181
vn -0.2103 0.9776 0.0016
vn -0.1953 0.9807 -0.0010
vn -1.0000 0.0000 0.0002
vn -0.9898 0.0000 -0.1421
vn -0.2701 0.9618 -0.0440
vn -0.1921 0.9814 -0.0037
vn -0.9998 0.0000 -0.0207
vn -0.2033 0.9791 -0.0100
vn -0.9982 0.0000 -0.0591
vn -0.2281 0.9734 -0.0197
vn -0.9958 0.0000 -0.0910
vn -0.3325 0.9431 0.0048
vn -0.3155 0.9489 0.0081
vn -0.3365 0.9416 0.0016
vn -0.3379 0.9412 0.0004
vn -0.3375 0.9413 -0.0001
vn 0.6382 0.0000 -0.7699
vn 0.0000 0.0000 -1.0000
vn -0.2720 0.9622 0.0139
vn 0.2623 -0.9650 0.0019
vn 0.2371 -0.9715 0.0027
vn -0.2740 -0.9617 0.0006
vn -0.2735 -0.9619 -0.0021
vn -0.1674 -0.9858 -0.0085
vn -0.1040 -0.9945 -0.0095
vn 0.2103 -0.9776 0.0016
vn 0.1953 -0.9807 -0.0010
vn 0.2701 -0.9618 -0.0440
vn 0.3326 -0.9316 -0.1465
vn 0.2458 -0.9543 -0.1700
vn 0.1921 -0.9814 -0.0037
vn 0.2033 -0.9791 -0.0100
vn 0.2281 -0.9734 -0.0197
vn -0.2623 -0.9650 0.0019
vn -0.2616 -0.9651 -0.0073
vn -0.2270 -0.9738 -0.0124
vn 0.3325 -0.9431 0.0048
vn 0.3155 -0.9489 0.0081
vn 0.0000 -1.0000 -0.0069
vn 0.0000 -1.0000 -0.0022
vn 0.3365 -0.9416 0.0016
vn 0.0000 -1.0000 -0.0005
vn 0.3379 -0.9412 0.0004
vn 0.0000 -1.0000 -0.0001
vn 0.3358 -0.9419 -0.0004
vn 0.3375 -0.9413 -0.0001
vn 0.0000 -1.0000 0.0000
vn 0.0000 -1.0000 0.0001
vn -0.3312 -0.9435 -0.0007
vn -0.3256 -0.9455 -0.0005
vn 0.0000 -1.0000 0.0002
vn -0.1937 -0.9809 -0.0150
vn -0.1281 -0.9914 -0.0259
vn 0.0000 -0.9996 -0.0288
vn 0.0000 -0.9998 -0.0218
vn -0.2544 -0.9670 -0.0098
vn 0.0000 -0.9998 -0.0157
vn -0.2923 -0.9563 -0.0061
vn 0.0000 -0.9999 -0.0100
vn -0.3157 -0.9488 -0.0032
vn 0.0000 -1.0000 -0.0049
vn -0.0829 -0.9936 -0.0770
vn 0.0000 -0.9981 -0.0611
vn 0.2720 -0.9622 0.0139
vn 0.0000 -0.9999 -0.0102
vn -0.3358 -0.9419 -0.0004
vn 0.2735 -0.9619 -0.0021
vn 0.2740 -0.9617 0.0006
vn 0.1040 -0.9945 -0.0095
vn 0.1674 -0.9858 -0.0085
vn 0.2616 -0.9651 -0.0073
vn 0.2270 -0.9738 -0.0124
vn 0.3256 -0.9455 -0.0005
vn 0.3312 -0.9435 -0.0007
vn 0.1281 -0.9914 -0.0259
vn 0.1937 -0.9809 -0.0150
vn 0.2544 -0.9670 -0.0098
vn 0.2923 -0.9563 -0.0061
vn 0.3157 -0.9488 -0.0032
vn 0.0000 -0.9922 -0.1249
vn 0.0829 -0.9936 -0.0770
vn 0.0000 -0.9885 -0.1510
vn -0.2458 -0.9543 -0.1700
vn -0.3326 -0.9316 -0.1465
vn -0.2371 -0.9715 0.0027
vn -0.1953 -0.9807 -0.0010
vn -0.2103 -0.9776 0.0016
vn -0.2701 -0.9618 -0.0440
vn -0.1921 -0.9814 -0.0037
vn -0.2033 -0.9791 -0.0100
vn -0.2281 -0.9734 -0.0197
vn -0.3155 -0.9489 0.0081
vn -0.3325 -0.9431 0.0048
vn -0.3365 -0.9416 0.0016
vn -0.3379 -0.9412 0.0004
vn -0.3375 -0.9413 -0.0001
vn -0.2720 -0.9622 0.0139
f 1//1 2//2 3//3 4//4
f 5//5 6//6 7//7 8//8
f 9//9 10//10 11//11 12//12
f 13//13 14//14 15//15 16//16
f 17//17 18//18 19//19 20//20
f 21//21 20//20 19//19 22//22
f 16//16 15//15 23//23 24//24
f 24//24 23//23 25//25 26//26
f 26//26 25//25 27//27 28//28
f 28//28 27//27 18//18 17//17
f 4//4 3//3 14//14 13//13
f 29//29 30//30 6//6 5//5
f 8//8 7//7 31//31 32//32
f 32//32 31//31 33//33 34//34
f 34//34 33//33 10//10 9//9
f 35//35 36//36 37//37 38//38
f 39//39 40//40 36//36 35//35
f 41//41 42//42 40//40 39//39
f 43//43 44//44 45//45 46//46
f 47//47 48//48 49//48 50//49
f 51//50 52//51 53//52 54//53
f 55//54 56//55 52//51 51//50
f 57//56 58//57 56//55 55//54
f 59//58 60//59 58//57 57//56
f 54//53 53//52 61//60 62//61
f 50//49 49//48 60//59 59//58
f 38//38 37//37 63//62 64//63
f 46//46 45//45 42//42 41//41
f 65//64 44//44 48//48 47//47
f 66//65 67//66 68//67 69//68
f 67//66 46//46 41//41 68//67
f 70//69 71//70 72//71 73//72
f 71//70 38//38 64//63 72//71
f 2//2 1//1 67//66 66//65
f 1//1 43//43 46//46 67//66
f 69//68 68//67 74//73 75//74
f 68//67 41//41 39//39 74//73
f 75//74 74//73 76//75 77//76
f 74//73 39//39 35//35 76//75
f 77//76 76//75 71//70 70//69
f 76//75 35//35 38//38 71//70
f 48//48 78//77 79//78 49//48
f 78//77 4//4 13//13 79//78
f 52//51 80//79 81//80 53//52
f 80//79 28//28 17//17 81//80
f 56//55 82//81 80//79 52//51
f 82//81 26//26 28//28 80//79
f 58//57 83//82 82//81 56//55
f 83//82 24//24 26//26 82//81
f 60//59 84//83 83//82 58//57
f 84//83 16//16 24//24 83//82
f 62//61 61//60 85//84 86//85
f 86//85 85//84 20//20 21//21
f 53//52 81//80 85//84 61//60
f 81//80 17//17 20//20 85//84
f 49//48 79//78 84//83 60//59
f 79//78 13//13 16//16 84//83
f 44//44 43//43 78//77 48//48
f 43//43 1//1 4//4 78//77
f 87//86 88//87 89//88 90//89
f 88//87 86//85 21//21 89//88
f 91//90 92//91 88//87 87//86
f 92//91 62//61 86//85 88//87
f 30//30 29//29 93//92 94//93
f 29//29 65//64 47//47 93//92
f 95//94 96//95 97//96 98//97
f 96//95 50//49 59//58 97//96
f 99//98 100//99 92//91 91//90
f 100//99 54//53 62//61 92//91
f 98//97 97//96 101//100 102//101
f 97//96 59//58 57//56 101//100
f 102//101 101//100 103//102 104//103
f 101//100 57//56 55//54 103//102
f 104//103 103//102 105//104 106//105
f 103//102 55//54 51//50 105//104
f 106//105 105//104 100//99 99//98
f 105//104 51//50 54//53 100//99
f 94//93 93//92 96//95 95//94
f 93//92 47//47 50//49 96//95
f 36//36 107//106 108//107 37//37
f 107//106 34//34 9//9 108//107
f 40//40 109//108 107//106 36//36
f 109//108 32//32 34//34 107//106
f 42//42 110//109 109//108 40//40
f 110//109 8//8 32//32 109//108
f 44//44 65//64 111//110 45//45
f 65//64 29//29 5//5 111//110
f 90//89 89//88 112//111 113//112
f 89//88 21//21 22//22 112//111
f 37//37 108//107 114//113 63//62
f 108//107 9//9 12//12 114//113
f 45//45 111//110 110//109 42//42
f 111//110 5//5 8//8 110//109
f 115//114 116//115 3//3 2//2
f 117//116 118//117 7//7 6//6
f 119//118 120//119 11//11 10//10
f 121//120 122//121 15//15 14//14
f 123//122 124//123 19//19 18//18
f 125//124 22//22 19//19 124//123
f 122//121 126//125 23//23 15//15
f 126//125 127//126 25//25 23//23
f 127//126 128//127 27//27 25//25
f 128//127 123//122 18//18 27//27
f 116//115 121//120 14//14 3//3
f 129//128 117//116 6//6 30//30
f 118//117 130//129 31//31 7//7
f 130//129 131//130 33//33 31//31
f 131//130 119//118 10//10 33//33
f 132//131 133//132 134//133 135//134
f 136//135 132//131 135//134 137//136
f 138//137 136//135 137//136 139//138
f 140//139 141//140 142//141 143//142
f 144//143 145//144 146//145 147//145
f 148//146 149//147 150//148 151//149
f 152//150 148//146 151//149 153//151
f 154//152 152//150 153//151 155//153
f 156//154 154//152 155//153 157//155
f 149//147 158//156 159//157 150//148
f 145//144 156//154 157//155 146//145
f 133//132 160//158 161//159 134//133
f 141//140 138//137 139//138 142//141
f 162//160 144//143 147//145 143//142
f 66//65 69//68 163//161 164//162
f 164//162 163//161 138//137 141//140
f 70//69 73//72 165//163 166//164
f 166//164 165//163 160//158 133//132
f 2//2 66//65 164//162 115//114
f 115//114 164//162 141//140 140//139
f 69//68 75//74 167//165 163//161
f 163//161 167//165 136//135 138//137
f 75//74 77//76 168//166 167//165
f 167//165 168//166 132//131 136//135
f 77//76 70//69 166//164 168//166
f 168//166 166//164 133//132 132//131
f 147//145 146//145 169//167 170//168
f 170//168 169//167 121//120 116//115
f 151//149 150//148 171//169 172//170
f 172//170 171//169 123//122 128//127
f 153//151 151//149 172//170 173//171
f 173//171 172//170 128//127 127//126
f 155//153 153//151 173//171 174//172
f 174//172 173//171 127//126 126//125
f 157//155 155//153 174//172 175//173
f 175//173 174//172 126//125 122//121
f 158//156 176//174 177//175 159//157
f 176//174 125//124 124//123 177//175
f 150//148 159//157 177//175 171//169
f 171//169 177//175 124//123 123//122
f 146//145 157//155 175//173 169//167
f 169//167 175//173 122//121 121//120
f 143//142 147//145 170//168 140//139
f 140//139 170//168 116//115 115//114
f 87//86 90//89 178//176 179//177
f 179//177 178//176 125//124 176//174
f 91//90 87//86 179//177 180//178
f 180//178 179//177 176//174 158//156
f 30//30 94//93 181//179 129//128
f 129//128 181//179 144//143 162//160
f 95//94 98//97 182//180 183//181
f 183//181 182//180 156//154 145//144
f 99//98 91//90 180//178 184//182
f 184//182 180//178 158//156 149//147
f 98//97 102//101 185//183 182//180
f 182//180 185//183 154//152 156//154
f 102//101 104//103 186//184 185//183
f 185//183 186//184 152//150 154//152
f 104//103 106//105 187//185 186//184
f 186//184 187//185 148//146 152//150
f 106//105 99//98 184//182 187//185
f 187//185 184//182 149//147 148//146
f 94//93 95//94 183//181 181//179
f 181//179 183//181 145//144 144//143
f 135//134 134//133 188//186 189//187
f 189//187 188//186 119//118 131//130
f 137//136 135//134 189//187 190//188
f 190//188 189//187 131//130 130//129
f 139//138 137//136 190//188 191//189
f 191//189 190//188 130//129 118//117
f 143//142 142//141 192//190 162//160
f 162//160 192//190 117//116 129//128
f 90//89 113//112 112//111 178//176
f 178//176 112//111 22//22 125//124
f 134//133 161//159 193//191 188//186
f 188//186 193//191 120//119 119//118
f 142//141 139//138 191//189 192//190
f 192//190 191//189 118//117 117//116
